<svg xmlns="http://www.w3.org/2000/svg" viewBox="0 0 1469.000000 447.000000" preserveAspectRatio="none" aria-hidden="true" focusable="false"><!-- Human Margin, omcirkeling: overgetrokken uit het aangeleverde merkmateriaal (PRD-001 V14). --><g transform="translate(0.000000,447.000000) scale(0.100000,-0.100000)" fill="#002CFF" stroke="none"><path d="M9825 4403 c-845 -33 -2315 -205 -3245 -379 -451 -84 -1430 -293 -1850 -394 -245 -60 -245 -60 -585 -85 -374 -28 -778 -63 -1425 -124 -588 -56 -774 -70 -1080 -81 -289 -11 -374 -23 -441 -62 -46 -28 -96 -74 -87 -83 11 -12 127 -27 175 -23 36 3 62 13 87 31 33 26 40 27 161 27 199 0 432 18 1510 120 411 38 937 81 942 76 2 -2 -25 -11 -59 -21 -35 -9 -155 -51 -268 -92 -117 -42 -289 -95 -400 -123 -659 -164 -1097 -301 -1660 -518 -129 -50 -314 -120 -410 -157 -203 -78 -396 -157 -460 -190 -169 -86 -358 -247 -463 -395 -33 -46 -83 -112 -110 -145 -70 -84 -91 -134 -90 -220 0 -134 52 -218 185 -297 l68 -40 0 -82 c0 -101 6 -112 133 -255 146 -164 181 -191 372 -286 198 -99 347 -150 664 -229 485 -122 819 -176 1426 -231 720 -65 1099 -79 2095 -79 1044 0 1791 31 2850 119 1289 108 2557 289 3340 476 91 21 244 52 340 68 483 81 685 122 1036 211 485 122 723 211 1224 458 234 115 304 155 390 220 131 99 269 228 308 288 28 41 132 340 132 378 0 18 -134 278 -166 321 -12 17 -29 55 -38 86 -20 70 -106 275 -140 332 -59 102 -148 188 -261 252 -128 72 -766 336 -885 366 -558 139 -838 201 -1099 244 -85 14 -155 26 -156 27 -1 2 -10 25 -19 53 -44 132 -157 214 -407 293 -339 108 -1029 169 -1634 145z m845 -142 c546 -60 831 -141 973 -279 20 -20 37 -39 37 -42 0 -3 -75 2 -167 11 -262 26 -479 38 -868 49 -198 6 -486 14 -640 20 -912 30 -2693 -116 -4200 -346 -206 -31 -692 -72 -743 -62 -29 6 898 206 1333 288 836 157 2089 314 2965 370 91 6 185 12 210 14 25 2 239 2 475 1 360 -2 462 -6 625 -24z m-445 -361 c105 -5 321 -14 480 -20 357 -13 537 -25 770 -51 274 -30 254 -25 261 -71 4 -21 10 -41 15 -44 11 -6 78 22 101 43 23 21 72 16 343 -37 325 -63 791 -175 943 -226 26 -9 121 -49 212 -89 91 -41 212 -92 270 -115 205 -82 317 -146 406 -235 54 -53 92 -101 113 -142 17 -35 30 -63 28 -63 -2 0 -42 23 -88 50 -46 28 -133 71 -194 96 -60 26 -188 80 -284 121 -382 164 -615 233 -1076 318 -965 177 -1816 247 -3380 276 -630 12 -1663 3 -2325 -21 -134 -5 -246 -8 -247 -6 -4 4 520 63 847 96 563 56 1235 107 1615 123 179 8 1020 6 1190 -3z m-720 -310 c976 -26 1666 -79 2400 -186 772 -112 1044 -182 1555 -399 107 -45 233 -99 280 -118 162 -66 364 -193 493 -307 54 -49 57 -54 57 -99 0 -62 -24 -153 -57 -213 -48 -87 -323 -401 -418 -476 -426 -336 -1372 -740 -2240 -956 -244 -60 -1080 -167 -1695 -216 -74 -6 -160 -13 -190 -15 -640 -56 -1942 -105 -2780 -105 -1899 0 -3997 175 -5295 441 -278 57 -260 52 -605 159 -273 85 -373 124 -473 188 -58 37 -58 37 -52 77 9 67 70 175 152 271 43 50 103 121 133 158 66 81 155 156 270 226 47 29 141 94 210 144 170 126 224 161 379 250 269 155 451 236 937 420 181 68 428 163 550 210 193 75 251 92 465 140 724 162 1676 329 1979 346 388 22 1243 53 1765 63 367 8 1864 5 2180 -3z m-5105 -155 c-196 -40 -225 -42 -110 -8 98 28 166 40 230 41 29 0 -15 -12 -120 -33z m-1581 -439 c-2 -3 -89 -37 -193 -76 -396 -150 -528 -205 -748 -316 -229 -115 -470 -262 -710 -435 -64 -46 -149 -104 -188 -127 -143 -88 -286 -220 -383 -351 -22 -31 -69 -85 -102 -121 -34 -36 -74 -87 -90 -115 -16 -27 -30 -51 -31 -53 -6 -8 -64 30 -87 57 -59 71 -85 218 -53 296 8 18 32 53 54 77 21 24 78 96 126 161 137 184 203 227 532 351 109 41 249 95 309 121 548 230 764 307 1295 460 245 71 278 80 269 71z m11621 -731 c28 -66 25 -117 -16 -247 -45 -144 -66 -179 -162 -269 -116 -110 -191 -155 -498 -303 -487 -233 -751 -324 -1304 -449 -214 -49 -239 -52 -170 -26 30 12 150 59 265 104 560 219 854 368 1198 604 172 119 511 463 604 614 41 65 44 64 83 -28z m-13595 -1269 c116 -36 262 -79 325 -95 750 -197 2167 -376 3590 -455 1613 -90 3213 -73 4789 49 178 14 325 24 327 22 5 -4 -401 -60 -711 -97 -1784 -214 -3995 -296 -5540 -205 -642 38 -1246 109 -1620 189 -243 52 -639 152 -745 188 -150 51 -412 178 -497 242 -33 25 -94 86 -134 134 -40 48 -82 97 -93 109 -19 23 -19 23 40 4 32 -11 154 -49 269 -85z"/></g></svg> 